<svg width="27" height="27" viewBox="0 0 27 27" fill="none" xmlns="http://www.w3.org/2000/svg">
<path d="M3.375 7.59376H15.3325C15.5071 8.0871 15.8303 8.5142 16.2576 8.81627C16.685 9.11834 17.1954 9.28054 17.7188 9.28054C18.2421 9.28054 18.7525 9.11834 19.1799 8.81627C19.6072 8.5142 19.9304 8.0871 20.105 7.59376H23.625C23.8488 7.59376 24.0634 7.50487 24.2216 7.34663C24.3799 7.1884 24.4688 6.97379 24.4688 6.75001C24.4688 6.52624 24.3799 6.31162 24.2216 6.15339C24.0634 5.99516 23.8488 5.90626 23.625 5.90626H20.105C19.9304 5.41293 19.6072 4.98583 19.1799 4.68375C18.7525 4.38168 18.2421 4.21948 17.7188 4.21948C17.1954 4.21948 16.685 4.38168 16.2576 4.68375C15.8303 4.98583 15.5071 5.41293 15.3325 5.90626H3.375C3.15122 5.90626 2.93661 5.99516 2.77838 6.15339C2.62014 6.31162 2.53125 6.52624 2.53125 6.75001C2.53125 6.97379 2.62014 7.1884 2.77838 7.34663C2.93661 7.50487 3.15122 7.59376 3.375 7.59376ZM23.625 19.4063H20.105C19.9304 18.9129 19.6072 18.4858 19.1799 18.1838C18.7525 17.8817 18.2421 17.7195 17.7188 17.7195C17.1954 17.7195 16.685 17.8817 16.2576 18.1838C15.8303 18.4858 15.5071 18.9129 15.3325 19.4063H3.375C3.15122 19.4063 2.93661 19.4952 2.77838 19.6534C2.62014 19.8116 2.53125 20.0262 2.53125 20.25C2.53125 20.4738 2.62014 20.6884 2.77838 20.8466C2.93661 21.0049 3.15122 21.0938 3.375 21.0938H15.3325C15.5071 21.5871 15.8303 22.0142 16.2576 22.3163C16.685 22.6183 17.1954 22.7805 17.7188 22.7805C18.2421 22.7805 18.7525 22.6183 19.1799 22.3163C19.6072 22.0142 19.9304 21.5871 20.105 21.0938H23.625C23.8488 21.0938 24.0634 21.0049 24.2216 20.8466C24.3799 20.6884 24.4688 20.4738 24.4688 20.25C24.4688 20.0262 24.3799 19.8116 24.2216 19.6534C24.0634 19.4952 23.8488 19.4063 23.625 19.4063ZM23.625 12.6563H11.6675C11.4929 12.1629 11.1697 11.7358 10.7424 11.4338C10.315 11.1317 9.80457 10.9695 9.28125 10.9695C8.75793 10.9695 8.24748 11.1317 7.82014 11.4338C7.39281 11.7358 7.06961 12.1629 6.89502 12.6563H3.375C3.15122 12.6563 2.93661 12.7452 2.77838 12.9034C2.62014 13.0616 2.53125 13.2762 2.53125 13.5C2.53125 13.7238 2.62014 13.9384 2.77838 14.0966C2.93661 14.2549 3.15122 14.3438 3.375 14.3438H6.89502C7.06961 14.8371 7.39281 15.2642 7.82014 15.5663C8.24748 15.8683 8.75793 16.0305 9.28125 16.0305C9.80457 16.0305 10.315 15.8683 10.7424 15.5663C11.1697 15.2642 11.4929 14.8371 11.6675 14.3438H23.625C23.8488 14.3438 24.0634 14.2549 24.2216 14.0966C24.3799 13.9384 24.4688 13.7238 24.4688 13.5C24.4688 13.2762 24.3799 13.0616 24.2216 12.9034C24.0634 12.7452 23.8488 12.6563 23.625 12.6563Z" fill="#363636"/>
</svg>
